<svg xmlns="http://www.w3.org/2000/svg" xmlns:xlink="http://www.w3.org/1999/xlink" width="200" zoomAndPan="magnify" viewBox="0 0 150 149.999998" height="200" preserveAspectRatio="xMidYMid meet" version="1.0"><defs><g/></defs><g fill="#025e47" fill-opacity="1"><g transform="translate(-0.923292, 103.492484)"><g><path d="M 18.769531 -21.429688 L 36.402344 -21.429688 L 36.402344 -22.265625 L 18.769531 -22.265625 Z M 37.464844 -36.25 L 24.773438 -36.25 L 24.773438 -34.957031 L 37.464844 -34.957031 Z M 24.773438 -47.042969 L 15.960938 -47.042969 L 15.960938 -46.207031 L 24.773438 -46.207031 Z M 20.898438 -14.363281 L 7.066406 -14.363281 L 7.066406 -13.527344 L 20.898438 -13.527344 Z M 57.453125 -51.675781 L 53.046875 -51.675781 L 53.046875 -50.839844 L 57.453125 -50.839844 Z M 49.550781 -46.660156 L 49.550781 -54.414062 L 57.453125 -54.414062 L 57.453125 -56.085938 L 53.730469 -56.085938 L 53.730469 -59.960938 C 53.730469 -60.339844 53.652344 -60.722656 53.425781 -61.101562 L 50.839844 -61.101562 C 50.460938 -61.859375 49.625 -62.621094 47.726562 -62.621094 L 21.429688 -62.621094 C 20.898438 -62.621094 19.835938 -62.394531 19.453125 -61.101562 L 22.113281 -61.101562 C 21.960938 -60.796875 21.886719 -60.417969 21.886719 -59.960938 L 21.886719 -56.085938 L 18.921875 -56.085938 L 18.921875 -54.414062 L 17.707031 -54.414062 L 17.707031 -53.957031 C 17.707031 -51.601562 19.304688 -51.375 19.910156 -51.375 C 19.910156 -51.375 38.226562 -51.296875 38.226562 -51.222656 L 38.226562 -46.660156 L 35.339844 -46.660156 L 35.339844 -41.570312 L 42.558594 -41.570312 L 42.558594 -33.363281 L 36.402344 -33.363281 L 36.402344 -31.691406 L 42.632812 -31.691406 L 42.632812 -22.496094 C 42.632812 -21.125 42.632812 -19.835938 42.480469 -18.769531 L 39.441406 -18.769531 C 39.367188 -18.085938 39.289062 -17.402344 39.214844 -16.796875 C 38.984375 -15.503906 38.605469 -14.515625 38.148438 -13.679688 L 41.949219 -13.679688 C 41.949219 -13.601562 41.875 -13.527344 41.796875 -13.453125 C 41.265625 -12.617188 40.503906 -12.082031 39.519531 -11.78125 C 38.53125 -11.398438 37.238281 -11.246094 35.640625 -11.246094 L 12.160156 -11.246094 C 11.703125 -11.246094 10.867188 -11.09375 10.335938 -10.183594 L 6.230469 -10.183594 C 6.003906 -9.804688 5.851562 -9.347656 5.851562 -8.585938 L 5.851562 -5.167969 L 9.195312 -5.167969 L 9.195312 -2.582031 C 9.195312 -0.226562 10.792969 0.0742188 11.398438 0.0742188 L 35.1875 0.0742188 C 38.453125 0.0742188 41.339844 -0.378906 43.773438 -1.214844 C 46.054688 -2.050781 47.953125 -3.34375 49.398438 -5.167969 L 46.054688 -5.167969 C 46.128906 -5.242188 46.207031 -5.320312 46.28125 -5.394531 C 47.34375 -6.761719 48.179688 -8.359375 48.789062 -10.183594 L 52.96875 -10.183594 C 53.195312 -11.09375 53.5 -11.929688 53.730469 -12.917969 C 53.730469 -13.148438 53.804688 -13.453125 53.882812 -13.679688 L 50.003906 -13.679688 C 50.308594 -15.199219 50.539062 -16.945312 50.613281 -18.769531 L 53.730469 -18.769531 C 53.882812 -20.289062 53.957031 -21.960938 53.957031 -23.785156 L 53.957031 -31.691406 L 52.359375 -31.691406 L 52.359375 -33.363281 L 53.882812 -33.363281 L 53.882812 -41.570312 L 48.714844 -41.570312 L 48.714844 -46.660156 Z M 49.550781 -46.660156 "/></g></g></g><g fill="#03989e" fill-opacity="1"><g transform="translate(59.697158, 103.492484)"><g><path d="M 76.757812 -32.980469 L 76.757812 -45.902344 L 81.011719 -45.902344 L 81.011719 -50.992188 L 75.082031 -50.992188 L 75.082031 -52.816406 C 75.082031 -53.425781 75.082031 -53.957031 75.007812 -54.488281 L 80.9375 -54.488281 C 80.859375 -56.617188 80.554688 -58.289062 80.023438 -59.503906 L 74.855469 -59.503906 C 74.78125 -59.734375 74.703125 -59.960938 74.550781 -60.1875 C 73.640625 -61.785156 71.890625 -62.621094 69.460938 -62.621094 L 62.542969 -62.621094 C 61.558594 -62.621094 60.644531 -62.542969 59.960938 -62.316406 C 59.125 -62.089844 58.441406 -61.707031 57.832031 -61.175781 C 57.453125 -60.722656 56.996094 -60.1875 56.691406 -59.503906 L 61.859375 -59.503906 C 61.707031 -59.351562 61.558594 -59.125 61.480469 -58.972656 C 61.101562 -58.0625 60.644531 -56.921875 60.1875 -55.476562 L 59.808594 -54.488281 L 53.882812 -54.488281 L 52.511719 -50.992188 L 58.441406 -50.992188 L 56.390625 -45.902344 L 52.132812 -45.902344 L 46.964844 -32.980469 L 52.4375 -32.980469 L 51.753906 -31.308594 L 51.070312 -31.308594 L 47.726562 -23.101562 L 45.597656 -23.101562 L 42.253906 -31.308594 L 43.015625 -31.308594 L 42.328125 -32.980469 L 36.859375 -32.980469 L 31.691406 -45.902344 L 36.023438 -45.902344 L 33.96875 -50.992188 L 28.042969 -50.992188 L 26.675781 -54.488281 L 32.527344 -54.488281 L 32.144531 -55.476562 C 31.691406 -56.921875 31.234375 -58.0625 30.855469 -58.972656 C 30.703125 -59.125 30.625 -59.351562 30.472656 -59.503906 L 25.382812 -59.503906 C 25.003906 -60.1875 24.621094 -60.722656 24.167969 -61.175781 C 23.558594 -61.707031 22.875 -62.089844 22.039062 -62.316406 C 21.277344 -62.542969 20.441406 -62.621094 19.378906 -62.621094 L 12.386719 -62.621094 C 9.878906 -62.621094 8.132812 -61.785156 7.21875 -60.1875 C 7.066406 -59.960938 6.992188 -59.734375 6.839844 -59.503906 L 12.007812 -59.503906 C 11.550781 -58.289062 11.246094 -56.617188 11.171875 -54.488281 L 1.367188 -54.488281 C 1.367188 -53.957031 1.367188 -53.425781 1.367188 -52.816406 L 1.367188 -50.992188 L 11.171875 -50.992188 L 11.171875 -45.902344 L 6.839844 -45.902344 L 6.839844 -32.980469 L 12.3125 -32.980469 L 12.3125 -31.308594 L 5.242188 -31.308594 L 5.242188 -23.101562 L 9.042969 -23.101562 L 9.042969 -10.335938 L 6.15625 -10.335938 L 6.15625 -8.585938 L 6.839844 -8.585938 L 6.839844 -3.570312 L 12.3125 -3.570312 L 12.3125 -2.582031 C 12.3125 -0.226562 13.832031 0.0742188 14.515625 0.0742188 L 21.050781 0.0742188 C 21.734375 0.0742188 23.179688 -0.226562 23.179688 -2.582031 L 23.179688 -3.570312 L 21.050781 -3.570312 L 21.050781 -8.585938 L 28.042969 -8.585938 L 28.042969 -10.335938 L 23.558594 -10.335938 L 23.558594 -18.011719 L 16.644531 -18.011719 L 16.644531 -23.101562 L 21.8125 -23.101562 L 21.8125 -31.308594 L 23.179688 -31.308594 L 23.179688 -32.980469 L 17.78125 -32.980469 L 17.78125 -45.902344 L 19.226562 -45.902344 L 24.46875 -32.980469 L 29.941406 -32.980469 L 30.625 -31.308594 L 29.867188 -31.308594 L 33.210938 -23.101562 L 28.574219 -23.101562 L 30.625 -18.011719 L 34.957031 -18.011719 L 35.792969 -16.035156 C 36.324219 -14.4375 36.859375 -13.070312 37.390625 -11.929688 C 37.695312 -11.324219 37.996094 -10.792969 38.300781 -10.335938 L 38.453125 -10.335938 C 38.757812 -9.878906 39.0625 -9.5 39.367188 -9.121094 C 39.519531 -8.96875 39.667969 -8.816406 39.898438 -8.585938 L 34.351562 -8.585938 C 34.957031 -8.132812 35.566406 -7.675781 36.25 -7.449219 C 37.160156 -7.144531 38.148438 -6.992188 39.289062 -6.992188 L 42.40625 -6.992188 C 43.546875 -6.992188 44.609375 -7.144531 45.445312 -7.449219 C 46.128906 -7.675781 46.8125 -8.132812 47.34375 -8.585938 L 52.894531 -8.585938 C 53.046875 -8.816406 53.195312 -8.96875 53.347656 -9.121094 C 53.652344 -9.5 53.957031 -9.878906 54.261719 -10.335938 L 54.109375 -10.335938 C 54.488281 -10.792969 54.792969 -11.324219 55.097656 -11.929688 C 55.628906 -13.070312 56.160156 -14.4375 56.691406 -16.035156 L 57.527344 -18.011719 L 53.195312 -18.011719 L 55.25 -23.101562 L 59.886719 -23.101562 L 63.152344 -31.308594 L 63.914062 -31.308594 L 64.597656 -32.980469 L 59.125 -32.980469 L 64.367188 -45.902344 L 65.886719 -45.902344 L 65.886719 -32.980469 L 71.285156 -32.980469 L 71.285156 -31.308594 L 70.601562 -31.308594 L 70.601562 -23.101562 L 65.738281 -23.101562 L 65.738281 -18.011719 L 70.601562 -18.011719 L 70.601562 -10.335938 L 62.089844 -10.335938 L 62.089844 -8.585938 L 69.460938 -8.585938 L 69.460938 -3.570312 L 66.648438 -3.570312 L 66.648438 -2.582031 C 66.648438 -0.226562 68.09375 0.0742188 68.777344 0.0742188 L 75.3125 0.0742188 C 75.996094 0.0742188 77.515625 -0.226562 77.515625 -2.582031 L 77.515625 -3.570312 L 80.328125 -3.570312 L 80.328125 -8.585938 L 75.769531 -8.585938 L 75.769531 -10.335938 L 81.46875 -10.335938 L 81.46875 -18.011719 L 78.882812 -18.011719 L 78.882812 -23.101562 L 81.46875 -23.101562 L 81.46875 -31.308594 L 85.648438 -31.308594 L 85.648438 -32.980469 Z M 34.804688 -4.253906 L 23.632812 -4.253906 L 23.632812 -5.242188 L 34.804688 -5.242188 Z M 52.285156 -54.414062 L 41.113281 -54.414062 L 41.113281 -55.324219 L 52.285156 -55.324219 Z M 47.648438 -41.417969 L 37.011719 -41.417969 L 37.011719 -42.175781 L 47.648438 -42.175781 Z M 62.925781 -6.460938 L 52.285156 -6.460938 L 52.285156 -7.296875 L 62.925781 -7.296875 Z M 62.925781 -6.460938 "/></g></g></g></svg>